<svg width="379" height="134" viewBox="0 0 379 134" fill="none" xmlns="http://www.w3.org/2000/svg">
<path d="M43.414 0.654968C52.449 0.654968 55.288 7.12696 57.661 13.598C58.669 16.34 82.136 80.602 82.835 82.53C83.032 83.063 82.903 83.952 82.073 84.268C81.242 84.58 69.048 89.325 68.375 89.579C67.701 89.831 66.942 89.456 66.694 88.786C66.444 88.12 61.389 74.11 60.819 72.544C59.138 72.544 27.729 72.544 26.051 72.544C25.478 74.11 20.371 88.148 20.136 88.786C19.904 89.431 19.17 89.86 18.458 89.579C17.743 89.296 5.49404 84.55 4.77004 84.268C4.07004 84 3.74704 83.202 3.99804 82.53C4.85804 80.12 27.968 16.894 29.151 13.598C31.439 7.22996 34.382 0.654968 43.414 0.654968ZM2.13804 115.631C1.40904 115.631 0.821045 116.238 0.821045 116.983V131.997C0.821045 132.747 1.41004 133.345 2.13804 133.345H84.691C85.414 133.345 85.997 132.747 85.997 131.997V116.983C85.997 116.239 85.414 115.631 84.691 115.631H2.13804V115.631ZM43.345 21.638L31.586 56.938H55.288L43.489 21.638H43.345V21.638ZM219.737 79.513C218.008 80.105 216.866 80.249 215.502 80.249C212.692 80.249 211.128 79.136 211.128 76.251C211.128 73.249 213.116 72.237 217.008 72.237C217.946 72.237 218.892 72.376 219.328 72.528V74.676C219.328 77 219.45 78.523 219.737 79.513V79.513ZM229.726 82.963C227.654 79.807 227.113 77.9489 227.113 73.9709V65.912C227.113 61.56 226.609 59.997 225.455 58.408C223.861 56.165 221.201 55.193 216.297 55.193C212.836 55.193 209.468 55.57 206.213 56.396L207.377 62.136C209.586 61.829 211.894 61.56 213.523 61.56C218.729 61.56 219.33 62.317 219.33 66.218V67.677C218.173 67.368 216.868 67.145 215.358 67.145C207.526 67.145 203.391 70.975 203.391 77.314C203.391 83.263 207.804 86.505 213.192 86.505C215.21 86.505 217.307 86.134 218.969 85.462C219.971 85.019 220.407 84.765 221.713 83.917C222.487 85.062 224.063 86.224 224.702 86.433L229.726 82.963V82.963ZM307.201 79.513C305.467 80.105 304.333 80.249 302.964 80.249C300.15 80.249 298.559 79.136 298.559 76.251C298.559 73.249 300.572 72.237 304.472 72.237C305.413 72.237 306.352 72.376 306.781 72.528V74.676C306.78 77 306.908 78.523 307.201 79.513V79.513ZM317.191 82.963C315.108 79.807 314.573 77.9489 314.573 73.9709V65.912C314.573 61.56 314.068 59.997 312.911 58.408C311.32 56.165 308.66 55.193 303.753 55.193C300.287 55.193 296.89 55.57 293.643 56.396L294.802 62.136C297.009 61.829 299.326 61.56 300.99 61.56C306.179 61.56 306.781 62.317 306.781 66.218V67.677C305.631 67.368 304.334 67.145 302.813 67.145C294.956 67.145 290.816 70.975 290.816 77.314C290.816 83.263 295.234 86.505 300.652 86.505C302.667 86.505 304.765 86.134 306.423 85.462C307.435 85.019 307.864 84.765 309.163 83.917C309.946 85.062 311.525 86.224 312.161 86.433L317.191 82.963V82.963ZM378.179 85.834C378.179 85.834 373.89 76.68 372.844 74.605C371.657 72.255 370.566 70.632 368.145 70.062V69.921C369.765 69.614 371.057 68.63 372.446 65.638C373.8 62.717 374.192 62.088 374.974 61.399C375.75 60.699 376.804 60.96 376.804 60.96L377.206 55.554C376.078 55.406 374.83 55.402 373.544 55.476C371.417 55.603 370.312 56.208 369.265 57.269C368.453 58.078 367.893 59.285 367.206 60.667C366.469 62.179 365.889 63.399 365.139 64.941C364.39 66.514 364.017 67.2209 361.982 67.2209H360.663V43.325H352.805V85.833H360.663V73.613L361.729 73.59C363.982 73.59 364.372 74.147 365.558 76.518C366.955 79.35 369.613 85.834 369.613 85.834H378.179V85.834ZM157.266 85.834H166.319L152.634 44.042C151.198 43.557 149.406 43.254 147.503 43.254C145.425 43.254 144.687 43.531 143.058 44.042L128.583 85.834H137.262C137.262 85.834 138.43 82.17 139.818 77.619H154.822C156.167 82.166 157.266 85.834 157.266 85.834ZM142.023 70.611C142.023 70.611 144.52 62.228 144.906 60.916C145.918 57.541 147.427 52.171 147.427 52.171H147.679C147.679 52.171 149.071 57.737 149.988 60.866C150.336 62.102 152.731 70.611 152.731 70.611H142.023ZM243.089 65.839C240.318 65.839 238.071 68.094 238.071 70.865C238.071 73.648 240.317 75.886 243.089 75.886C245.857 75.886 248.101 73.648 248.101 70.865C248.101 68.094 245.856 65.839 243.089 65.839ZM177.067 43.325H169.207V85.833H177.067V43.325ZM333.278 61.947C337.616 62.046 338.149 62.937 338.149 66.587V85.834H345.937V65.9109C345.937 61.5589 345.433 59.996 344.278 58.407C342.685 56.164 339.534 55.192 334.223 55.192C328.968 55.192 325.625 55.751 321.31 57.034V85.833H329.179V62.317C331.254 62.017 331.608 61.947 333.278 61.947V61.947ZM196.506 42.571C191.602 42.571 188.936 43.537 187.345 45.781C186.191 47.369 185.685 48.974 185.685 53.329V57.034H181.779V63.388H185.685V85.833H193.471L193.453 63.388H201.231V57.034H193.453L193.471 53.627C193.471 49.731 194.075 48.975 199.279 48.975C199.838 48.975 200.47 49.005 201.148 49.057L202.377 42.954C200.45 42.694 198.485 42.571 196.506 42.571ZM259.069 42.963C261.744 42.808 267.715 42.585 271.476 42.585C272.144 42.585 272.846 42.591 273.565 42.623C280.951 42.623 285.174 47.999 285.174 54.301C285.174 58.587 283.212 61.432 278.612 63.131C284.033 64.329 286.87 68.56 286.87 73.726C286.87 77.521 285.788 80.5309 283.816 82.589C281.276 85.103 277.423 86.505 272.296 86.503C267.714 86.503 261.989 86.366 259.068 86.192V42.963H259.069ZM271.477 49.933C270.16 49.933 268.566 49.954 266.964 50.012C266.964 50.706 266.964 59.527 266.964 60.219C267.61 60.219 271.484 60.219 271.484 60.219C273.255 60.219 274.7 59.7209 275.684 58.7599C276.61 57.8609 277.091 56.58 277.091 55.06C277.091 51.802 275.329 49.948 272.048 49.933C271.776 49.933 271.658 49.933 271.477 49.933V49.933ZM271.626 79.181C271.747 79.181 271.869 79.181 271.989 79.181C276.053 79.181 278.575 77.003 278.6 72.62C278.554 71.038 277.956 69.591 276.884 68.542C275.692 67.354 274.019 66.733 272.059 66.733C272.059 66.733 267.623 66.733 266.963 66.733C266.963 67.436 266.963 78.426 266.963 79.131C268.4 79.162 269.98 79.174 271.626 79.181Z" fill="#EE3424"/>
</svg>
