<svg width="93" height="34" viewBox="0 0 93 34" fill="none" xmlns="http://www.w3.org/2000/svg">
<g clip-path="url(#clip0_826_28)">
<path fill-rule="evenodd" clip-rule="evenodd" d="M6.88078 0.792969L5.31714 5.07608H26.9857L28.5493 0.792969H6.88078ZM4.53483 7.21666L2.9712 11.4988H24.6397L26.2034 7.21666H4.53483ZM2.19377 13.6404L0.630127 17.9225H22.2987L23.8613 13.6404H2.19377Z" fill="#009FDF"/>
<mask id="mask0_826_28" style="mask-type:alpha" maskUnits="userSpaceOnUse" x="33" y="7" width="60" height="27">
<path d="M33.1399 33.5357H92.455V7.29895H33.1399V33.5357Z" fill="white"/>
</mask>
<g mask="url(#mask0_826_28)">
<path fill-rule="evenodd" clip-rule="evenodd" d="M46.6961 19.5546V19.645C47.6864 20.0085 48.6323 20.644 49.1279 21.0522C50.6591 22.3233 51.3351 24.0027 51.3351 26.1815C51.3351 29.7685 49.4432 32.3555 46.3355 33.1728C45.3896 33.4449 44.3993 33.5363 42.5518 33.5363H33.1399V7.29895H41.4719C43.1834 7.29895 44.354 7.38932 45.3896 7.66143C48.4076 8.47874 50.3892 10.5672 50.3892 13.8801C50.3892 15.6508 49.7585 17.1494 48.7229 18.1474C48.2727 18.6013 47.642 19.1465 46.6961 19.5546ZM38.3641 22.3233V29.2233H41.9675C43.0474 29.2233 44.0387 29.1329 44.7599 28.4517C45.4802 27.7704 45.7955 26.9084 45.7955 25.7733C45.7955 24.9113 45.5699 24.094 45.1196 23.5041C44.354 22.5508 43.4081 22.3233 41.7872 22.3233H38.3641ZM38.3188 17.784H41.2462C42.1468 17.784 42.5971 17.784 43.0474 17.6479C44.2643 17.2844 45.0299 16.196 45.0299 14.6974C45.0299 12.9278 44.219 12.1551 43.0474 11.7927C42.5518 11.6566 42.0572 11.6109 41.0659 11.6109H38.3188V17.784ZM59.1714 33.5363V11.7013H51.6504V7.29895H72.5483L71.0624 11.7013H64.3957V33.5363H59.1714ZM74.1692 33.5363V7.29895H91.1041L89.6183 11.7013H79.3491V17.5118H83.5378C86.9155 17.5118 88.6723 18.3292 89.8882 19.3729C90.8342 20.1902 92.455 22.0056 92.455 25.5926C92.455 29.1329 90.7888 31.0844 89.3926 32.0834C87.7717 33.2175 86.0602 33.5363 82.5918 33.5363H74.1692ZM79.3491 29.1329H83.2678C84.7537 29.1329 85.6543 28.7695 86.2849 27.9522C86.6002 27.544 87.0505 26.8171 87.0505 25.4555C87.0505 24.094 86.6002 23.1407 85.6996 22.4594C85.1596 22.0512 84.4384 21.8248 83.2225 21.8248H79.3491V29.1329Z" fill="#0A2973"/>
</g>
</g>
<defs>
<clipPath id="clip0_826_28">
<rect width="92" height="33" fill="white" transform="translate(0.630127 0.792969)"/>
</clipPath>
</defs>
</svg>
