<svg width="780" height="500" viewBox="0 0 780 500" fill="none" xmlns="http://www.w3.org/2000/svg">
<g clip-path="url(#clip0_828_38)">
<path fill-rule="evenodd" clip-rule="evenodd" d="M54.992 0C24.627 0 0 24.63 0 55.004V445.996C0 476.376 24.619 501 54.992 501H725.008C755.373 501 780 476.37 780 445.996V55.004C780 24.624 755.381 0 725.008 0H54.992Z" fill="#4D4D4D"/>
<path fill-rule="evenodd" clip-rule="evenodd" d="M327.152 161.893C335.989 161.893 343.4 163.677 352.42 167.983V190.734C343.876 182.871 336.465 179.58 326.664 179.58C307.4 179.58 292.25 194.595 292.25 213.63C292.25 233.705 306.931 247.826 327.62 247.826C336.932 247.826 344.206 244.706 352.42 236.969V259.732C343.079 263.872 335.509 265.508 326.664 265.508C295.386 265.508 271.082 242.912 271.082 213.771C271.082 184.945 296.033 161.893 327.152 161.893V161.893ZM230.039 162.52C241.585 162.52 252.149 166.24 260.982 173.514L250.234 186.762C244.884 181.116 239.824 178.734 233.67 178.734C224.817 178.734 218.37 183.479 218.37 189.723C218.37 195.077 221.989 197.911 234.314 202.205C257.679 210.249 264.604 217.381 264.604 233.131C264.604 252.324 249.628 265.684 228.284 265.684C212.654 265.684 201.29 259.889 191.826 246.812L205.094 234.782C209.824 243.392 217.716 248.004 227.514 248.004C236.677 248.004 243.461 242.052 243.461 234.02C243.461 229.856 241.406 226.286 237.303 223.762C235.237 222.567 231.145 220.785 223.103 218.115C203.812 211.577 197.193 204.588 197.193 190.93C197.193 174.705 211.407 162.52 230.039 162.52V162.52ZM464.762 164.248H487.199L515.283 230.84L543.729 164.248H565.996L520.502 265.934H509.449L464.762 164.248V164.248ZM67.4141 164.4H97.5641C130.876 164.4 154.098 184.782 154.098 214.041C154.098 228.631 146.994 242.737 134.98 252.098C124.872 259.999 113.354 263.543 97.4061 263.543H67.4141V164.4V164.4ZM163.549 164.4H184.089V263.543H163.549V164.4ZM575.283 164.4H633.535V181.2H595.81V203.205H632.146V219.996H595.81V246.758H633.536V263.543H575.284V164.4H575.283ZM647.141 164.4H677.596C701.286 164.4 714.861 175.11 714.861 193.672C714.861 208.852 706.347 218.812 690.875 221.777L724.023 263.543H698.763L670.334 223.715H667.656V263.543H647.141V164.4V164.4ZM667.656 180.016V210.041H673.658C686.775 210.041 693.727 204.679 693.727 194.713C693.727 185.065 686.773 180.016 673.982 180.016H667.656V180.016ZM87.9401 181.199V246.758H93.4521C106.725 246.758 115.108 244.364 121.562 238.878C128.665 232.923 132.938 223.413 132.938 213.898C132.938 204.399 128.665 195.173 121.562 189.217C114.777 183.437 106.725 181.199 93.4521 181.199H87.9401Z" fill="white"/>
<path fill-rule="evenodd" clip-rule="evenodd" d="M415.13 161.21C446.071 161.21 471.152 184.79 471.152 213.919V213.952C471.152 243.082 446.071 266.694 415.131 266.694C384.191 266.694 359.109 243.081 359.109 213.952V213.919C359.109 184.789 384.191 161.209 415.131 161.209L415.13 161.21ZM779.98 288.36C753.93 306.69 558.9 437.7 221.23 500.98H724.99C755.355 500.98 779.982 476.35 779.982 445.976V288.356L779.98 288.36Z" fill="#F47216"/>
</g>
<defs>
<clipPath id="clip0_828_38">
<rect width="780" height="500" fill="white"/>
</clipPath>
</defs>
</svg>
