<svg width="780" height="500" viewBox="0 0 780 500" fill="none" xmlns="http://www.w3.org/2000/svg">
<path d="M40 0H740C762.1 0 780 17.9 780 40V460C780 482.1 762.1 500 740 500H40C17.9 500 0 482.1 0 460V40C0 17.9 17.9 0 40 0Z" fill="white"/>
<path d="M544.1 240.5V348.5H604.1V284.5H672.1C700.7 284.3 725 266 734.2 240.5H544.1Z" fill="#37A72E"/>
<path d="M536.1 151.5C539.6 195.6 581.4 230.5 632.4 230.5C632.6 230.5 736.7 230.5 736.7 230.5C737.5 226.5 737.9 222.3 737.9 218C737.9 181.4 708.4 151.8 671.9 151.5H536.1Z" fill="url(#paint0_linear_822_12)"/>
<path d="M447.3 229.4V229.3V229.4C448 228.2 449.1 227.5 450.5 227.5C452.5 227.5 454 229.1 454.1 231V347.5H514.1V151.5H454.1C446.5 151.8 437.9 157.3 434.7 164.2L387 266.6C386.9 267 386.7 267.4 386.5 267.8C385.8 268.8 384.6 269.5 383.2 269.5C381 269.5 379.2 267.7 379.2 265.5V151.5H319.2V347.5H379.2C386.7 347.1 395.1 341.6 398.3 334.8L447.3 229.7C447.2 229.6 447.3 229.5 447.3 229.4Z" fill="#37A72E"/>
<path d="M223.3 232.8L188.2 347.5H145L110 232.7C109.7 230.9 108.1 229.5 106.1 229.5C103.9 229.5 102.2 231.3 102.2 233.4V347.4H42.2V151.4H93.6999H109C120 151.4 131.6 160 134.8 170.5L164 266C165.5 270.8 167.8 270.7 169.3 266L198.5 170.5C201.7 159.9 213.3 151.4 224.3 151.4H239.6H291.1V347.4H231.1V233.4C231.1 233.4 231.1 233.4 231.1 233.3C231.1 231.1 229.3 229.4 227.2 229.4C225.2 229.5 223.6 230.9 223.3 232.8Z" fill="#37A72E"/>
<defs>
<linearGradient id="paint0_linear_822_12" x1="536.124" y1="191" x2="737.888" y2="191" gradientUnits="userSpaceOnUse">
<stop stop-color="#00A0E5"/>
<stop offset="1" stop-color="#0077C3"/>
</linearGradient>
</defs>
</svg>
