<svg width="2500" height="625" viewBox="0 0 2500 625" fill="none" xmlns="http://www.w3.org/2000/svg">
<path fill-rule="evenodd" clip-rule="evenodd" d="M2400 90H2458.12C2447.7 95.825 2433.75 106.875 2416.25 123.125L2358.12 182.5L2390 228.125C2423.34 275.625 2452.5 311.875 2477.5 336.875H2394.38C2383.96 312.7 2370.41 288.125 2353.75 263.125L2316.25 206.875L2348.75 165.625C2377.91 127.713 2395 102.5 2400 90V90ZM2311.88 117.5V308.75L2314.37 323.125C2316.04 325.625 2319.8 327.712 2325.63 329.375V336.875H2245V329.375L2256.25 323.125C2257.9 320.625 2258.75 315.838 2258.75 308.75V117.5L2256.25 103.75C2254.58 100.838 2250.81 98.9625 2245 98.125V90H2325.63V98.125C2319.79 98.95 2316.02 100.838 2314.37 103.75L2311.88 117.5ZM2191.88 117.5V308.75L2194.38 323.125L2205.62 329.375V336.875H2124.38V329.375C2130.2 327.712 2134.37 325.625 2136.88 323.125L2138.75 308.75V209.375H2043.75V308.75L2046.25 323.125C2047.91 325.625 2051.65 327.712 2057.48 329.375V336.875H1975.6V329.375C1982.28 327.712 1986.43 325.625 1988.1 323.125L1990.6 308.75V117.5L1988.1 103.75C1986.43 100.838 1982.28 98.9625 1975.6 98.125V90H2057.48V98.125C2051.64 98.95 2047.9 100.838 2046.23 103.75L2043.73 117.5V193.125H2138.73V117.5L2136.88 103.75C2134.37 100.838 2130.2 98.9625 2124.38 98.125V90H2205.62V98.125C2199.79 98.95 2196.04 100.838 2194.38 103.75L2191.88 117.5ZM2162.5 501.25H2201.87L2185.63 583.75H2174.38L2181.88 545.625H2162.5L2135.63 583.75H2123.13L2150.63 545C2139.38 541.663 2133.75 534.575 2133.75 523.75C2133.75 517.913 2136.25 512.913 2141.25 508.75C2146.25 503.75 2153.34 501.25 2162.5 501.25V501.25ZM2160 536.25H2183.75L2188.75 510.625H2162.5C2156.66 510.625 2152.07 512.075 2148.75 515C2146.25 517.5 2145 520.625 2145 524.375C2145 532.3 2150 536.25 2160 536.25V536.25ZM2063.75 522.5L2055.62 563.75C2061.88 571.675 2068.96 575.625 2076.87 575.625C2084.8 575.625 2091.69 571.675 2097.5 563.75C2103.34 555.425 2106.25 545.225 2106.25 533.125C2106.25 525.213 2104.59 519.175 2101.25 515C2097.93 510.85 2093.12 508.75 2086.88 508.75C2077.71 508.75 2070 513.325 2063.75 522.5V522.5ZM2066.88 501.25L2065 511.25L2075.63 502.5L2089.37 499.375C2098.12 499.375 2105 502.288 2110 508.125C2115 513.963 2117.5 522.5 2117.5 533.75C2117.5 548.75 2113.56 561.038 2105.62 570.625C2098.12 580.2 2088.75 585 2077.5 585L2063.75 582.5L2053.75 575L2045.62 616.875H2034.38L2056.88 501.25H2066.88V501.25ZM2264.37 501.25L2273.75 573.75H2281.88L2276.87 599.375H2268.12L2270 583.75H2214.37L2210 599.375H2201.87L2206.25 573.75H2213.75L2248.13 501.25H2264.37V501.25ZM2253.75 511.875L2225 573.75H2261.88L2256.25 511.875H2253.75V511.875ZM2292.5 549.375C2292.5 535.2 2296.66 523.338 2305 513.75C2312.5 504.162 2321.66 499.375 2332.5 499.375C2341.66 499.375 2348.75 502.713 2353.75 509.375C2359.16 515.625 2361.88 524.375 2361.88 535.625C2361.88 548.95 2357.9 560.625 2350 570.625C2342.08 580.213 2332.9 585 2322.5 585C2313.33 585 2306.04 581.875 2300.63 575.625C2295.21 569.375 2292.5 560.625 2292.5 549.375V549.375ZM2477.5 423.125H668.75V398.75H2477.5V423.125V423.125ZM2407.5 501.25L2416.88 572.5L2451.25 501.25H2469.38L2453.13 583.75H2442.5L2456.25 511.25L2420 583.75H2409.38L2398.75 511.25L2384.38 583.75H2373.75L2390 501.25H2407.5ZM2345.62 515.625C2343.93 513.438 2341.75 511.677 2339.25 510.484C2336.76 509.29 2334.02 508.696 2331.25 508.75C2324.18 508.75 2317.93 512.7 2312.5 520.625C2306.66 528.95 2303.75 539.15 2303.75 551.25C2303.75 558.75 2305.63 564.788 2309.38 569.375C2312.71 573.525 2317.09 575.625 2322.5 575.625C2330 575.625 2336.67 571.663 2342.5 563.75C2347.94 555.413 2350.63 545.4 2350.63 533.75C2350.63 526.25 2348.95 520.213 2345.62 515.625V515.625ZM1798.75 98.125V90H1870C1870.81 101.25 1873.75 113.338 1878.75 126.25L1931.25 273.75C1940 299.587 1948.53 320.625 1956.88 336.875H1894.38L1867.5 248.125H1788.13L1771.25 306.875L1766.25 336.875H1721.25L1801.23 151.875C1809.15 132.3 1813.1 118.962 1813.1 111.875C1813.13 103.962 1808.32 99.375 1798.75 98.125V98.125ZM1828.13 131.25L1794.38 230.625H1861.88L1828.13 131.25V131.25ZM1701.87 143.75H1688.13L1685 133.125C1681.65 121.037 1676.65 113.125 1670 109.375L1635.63 105H1602.5C1595 105 1590 106.25 1587.5 108.75C1585.43 110.837 1584.38 114.575 1584.38 120V178.75H1598.12C1638.12 178.75 1665.84 182.712 1681.25 190.625C1703.34 201.462 1714.37 222.713 1714.37 254.375C1714.37 285.213 1705.63 307.287 1688.13 320.625C1672.7 331.462 1648.75 336.875 1616.25 336.875H1517.5V329.375L1529.37 323.125L1531.25 308.75V117.5L1529.37 103.75C1527.7 100.838 1523.75 98.9625 1517.5 98.125V90H1701.87V143.75ZM1584.38 194.375V300C1584.38 308.337 1585.84 313.75 1588.75 316.25C1592.1 319.587 1597.93 321.25 1606.25 321.25H1613.75C1629.6 321.25 1641.25 315.825 1648.75 305C1655.42 295 1658.75 278.962 1658.75 256.875C1658.75 235.212 1655.21 219.8 1648.13 210.625C1640.63 199.788 1626.66 194.375 1606.25 194.375H1584.38V194.375ZM1600 474.375C1605 479.375 1607.5 486.25 1607.5 495C1607.5 502.5 1605.2 508.75 1600.63 513.75C1596.46 518.325 1589.8 521.875 1580.62 524.375C1593.54 529.788 1600 538.325 1600 550C1600 560.838 1596.25 569.163 1588.75 575C1581.67 580.838 1571.05 583.75 1556.88 583.75H1517.5L1539.37 466.875H1576.25C1586.67 466.875 1594.58 469.375 1600 474.375V474.375ZM1549.38 477.5L1541.25 518.125H1564.37C1574.37 518.125 1582.09 516.038 1587.5 511.875C1592.94 507.3 1595.62 501.662 1595.62 495C1595.62 488.75 1593.96 484.375 1590.63 481.875C1586.88 478.95 1581.25 477.5 1573.75 477.5H1549.38V477.5ZM1626.25 549.375C1626.25 557.713 1628.34 563.963 1632.5 568.125C1636.25 572.7 1641.67 575 1648.75 575L1663.13 570.625L1671.25 559.375L1680 563.125L1667.5 578.75C1662.06 582.913 1655.4 585 1647.48 585C1637.89 585 1630.18 581.663 1624.35 575C1618.51 568.338 1615.6 559.375 1615.6 548.125C1615.6 534.8 1619.35 523.35 1626.85 513.75C1634.35 504.175 1643.72 499.375 1654.97 499.375C1662.89 499.375 1669.14 501.475 1673.72 505.625C1678.3 509.375 1682.05 515.225 1684.98 523.125L1674.38 525C1671.46 514.163 1665 508.75 1655 508.75C1647.5 508.75 1640.83 512.5 1635 520C1629.18 527.913 1626.25 537.713 1626.25 549.375V549.375ZM1560.62 528.125H1539.37L1531.25 573.125H1558.75C1567.93 573.125 1575 571.05 1580 566.875C1585 562.712 1587.5 557.088 1587.5 550C1587.5 544.575 1585.21 539.575 1580.62 535C1575.21 530.425 1568.54 528.125 1560.62 528.125ZM1763.75 542.5H1705.62L1705 549.375C1705 557.713 1707.09 564.163 1711.25 568.75C1715 573.338 1720.22 575.625 1726.87 575.625C1732.72 575.625 1737.71 573.75 1741.88 570L1752.5 556.25L1761.88 561.25L1746.25 578.125C1740.43 582.713 1733.34 585 1725 585C1715.43 585 1707.92 581.875 1702.5 575.625C1697.09 568.963 1694.38 560.213 1694.38 549.375C1694.38 534.788 1698.12 522.925 1705.62 513.75C1713.56 504.162 1723.35 499.375 1735 499.375C1744.6 499.375 1751.9 502.288 1756.88 508.125C1762.31 513.55 1765 521.45 1765 531.875L1763.75 542.5V542.5ZM1749.38 515C1747.58 512.969 1745.37 511.357 1742.88 510.277C1740.4 509.197 1737.71 508.676 1735 508.75C1727.5 508.75 1721.67 511.038 1717.5 515.625C1713.34 519.375 1710 525.213 1707.5 533.125H1753.13L1753.75 528.125C1753.75 523.125 1752.3 518.75 1749.38 515ZM1776.25 583.75L1792.5 501.25H1838.75L1836.88 510.625H1801.25L1786.88 583.75H1776.25ZM1869.38 511.875L1840.63 573.75H1877.5L1871.88 511.875H1869.38ZM1880 501.25L1889.37 573.75H1897.5L1892.5 599.375H1884.38L1885.63 583.75H1830L1825.63 599.375H1817.5L1821.88 573.75H1829.38L1863.75 501.25H1880ZM1910 561.875C1910 553.125 1913.75 546.463 1921.25 541.875C1929.18 536.875 1940.21 534.375 1954.38 534.375H1965.63L1966.25 525C1966.25 519.575 1964.8 515.625 1961.88 513.125C1958.54 510.213 1953.95 508.75 1948.13 508.75C1942.69 508.75 1936.66 511.875 1930 518.125L1923.13 511.25C1932.29 503.325 1941.25 499.375 1950 499.375C1958.31 499.375 1965 501.663 1970 506.25C1975 510.838 1977.5 516.675 1977.5 523.75L1976.25 536.25L1970.62 563.75C1969.37 569.588 1968.75 576.25 1968.75 583.75H1958.12L1957.5 574.375L1946.25 581.875L1933.12 585C1926.46 585 1921.04 582.725 1916.88 578.125C1912.29 573.538 1910 568.125 1910 561.875ZM1955.62 543.125C1932.71 543.125 1921.25 548.95 1921.25 560.625C1921.25 564.788 1922.5 568.325 1925 571.25C1927.91 574.163 1931.46 575.625 1935.63 575.625C1941.88 575.625 1949.8 572.088 1959.38 565L1963.75 543.125H1955.62ZM1495.62 160.625C1495.62 189.375 1486.88 210 1469.38 222.5C1454.38 233.337 1431.04 238.75 1399.37 238.75H1374.37V308.75L1376.88 323.125C1378.13 325.625 1382.06 327.712 1388.72 329.375V336.875H1307.47V329.375L1318.73 323.125L1321.22 308.75V117.5L1318.73 103.75C1317.06 100.838 1313.3 98.9625 1307.47 98.125V90H1409.97C1437.89 90 1458.3 94.1625 1471.23 102.5C1487.5 113.337 1495.62 132.713 1495.62 160.625V160.625ZM1378.12 107.5C1375.62 109.163 1374.37 112.913 1374.37 118.75V223.125H1399.37C1414.79 223.125 1425.63 217.288 1431.88 205.625C1437.3 195.213 1440 179.375 1440 158.125C1440 122.712 1425.2 105 1395.63 105H1389.38L1378.12 107.5ZM1270 143.75H1256.88L1253.75 133.125C1249.59 121.037 1244.38 113.125 1238.13 109.375L1204.37 105H1176.88L1166.87 107.5L1164.38 116.875V193.125H1196.87C1219.37 193.125 1234.16 190.625 1241.25 185.625V216.875C1234.18 211.875 1219.37 209.375 1196.87 209.375H1164.38V301.875C1164.38 309.375 1166.87 314.587 1171.87 317.5L1203.12 321.25H1210L1243.75 316.25C1249.59 312.5 1254.17 303.338 1257.5 288.75L1260 279.375H1275.63V336.875H1097.5V329.375C1103.75 327.712 1107.71 325.625 1109.37 323.125L1111.87 308.75V117.5L1109.37 103.75C1107.71 100.838 1103.75 98.9625 1097.5 98.125V90H1270V143.75V143.75ZM1056.88 143.75H1043.75L1040.62 133.125C1036.87 121.037 1031.66 113.125 1025 109.375L991.875 105H957.5C950.412 105 945.413 106.25 942.5 108.75C941.25 110.837 940.625 114.575 940.625 120V178.75H954.375C993.962 178.75 1021.66 182.712 1037.5 190.625C1059.16 201.462 1070 222.713 1070 254.375C1070 285.213 1061.25 307.287 1043.75 320.625C1028.75 331.462 1004.79 336.875 971.875 336.875H872.5V329.375C879.175 327.712 883.338 325.625 885 323.125L887.5 308.75V117.5L885 103.75C883.338 100.838 879.175 98.9625 872.5 98.125V90H1056.88V143.75V143.75ZM808.125 110C800.625 104.588 788.962 101.875 773.125 101.875C748.125 101.875 730.412 111.038 720 129.375C711.25 145.213 706.875 171.037 706.875 206.875C706.875 242.712 711.662 269.162 721.25 286.25C732.913 307.5 752.912 318.125 781.25 318.125C802.087 318.125 822.712 313.125 843.125 303.125L850.625 318.75C826.875 333.325 798.962 340.625 766.875 340.625C688.537 340.625 649.375 299.162 649.375 216.25C649.375 129.175 690 85.625 771.25 85.625C802.5 85.625 826.462 89.375 843.125 96.875V148.125H827.5L823.125 133.125C819.787 122.712 814.788 115 808.125 110V110ZM940.625 194.375V300C940.625 308.337 941.875 313.75 944.375 316.25C947.713 319.587 953.75 321.25 962.5 321.25H969.375C999.375 321.25 1014.38 299.787 1014.38 256.875C1014.38 235.212 1010.84 219.8 1003.75 210.625C995.838 199.788 981.663 194.375 961.25 194.375H940.625V194.375Z" fill="#006236"/>
<path fill-rule="evenodd" clip-rule="evenodd" d="M434.375 50.625L456.25 70.625L180 229.375L46.25 151.875L58.75 126.875L180 196.25L434.375 50.625ZM378.75 18.75L408.125 33.75L180 165L73.75 104.375L91.875 82.5L180 133.125L378.75 18.75ZM475.625 91.25L491.875 113.125L180 292.5L29.375 206.25L36.25 178.75L180 261.25L475.625 91.25Z" fill="url(#paint0_radial_824_24)"/>
<path fill-rule="evenodd" clip-rule="evenodd" d="M520.625 171.875C529.788 197.713 534.375 224.788 534.375 253.125C534.375 281.463 529.788 308.963 520.625 335.625L514.375 352.5C501.556 382.781 483.104 410.353 460 433.75C436.686 456.8 409.083 475.06 378.75 487.5C346.675 501.25 313.55 508.125 279.375 508.125C244.788 508.125 211.663 501.25 180 487.5C150.413 475 123.538 457.087 99.375 433.75C75.625 410 57.5 382.925 45 352.5C31.7875 321.036 24.988 287.251 25 253.125V236.25L180 324.375L506.875 136.875L520.625 171.875Z" fill="url(#paint1_radial_824_24)"/>
<defs>
<radialGradient id="paint0_radial_824_24" cx="0" cy="0" r="1" gradientUnits="userSpaceOnUse" gradientTransform="translate(296.25 258.763) scale(292.65)">
<stop stop-color="#52A347"/>
<stop offset="0.502" stop-color="#83B03E"/>
<stop offset="0.706" stop-color="#2EA64C"/>
<stop offset="0.929" stop-color="#264122"/>
<stop offset="0.933" stop-color="#264122"/>
</radialGradient>
<radialGradient id="paint1_radial_824_24" cx="0" cy="0" r="1" gradientUnits="userSpaceOnUse" gradientTransform="translate(296.25 258.75) scale(292.662)">
<stop stop-color="#52A347"/>
<stop offset="0.502" stop-color="#83B03E"/>
<stop offset="0.706" stop-color="#2B9940"/>
<stop offset="0.929" stop-color="#264122"/>
<stop offset="0.933" stop-color="#264122"/>
</radialGradient>
</defs>
</svg>
