<svg width="300" height="300" viewBox="0 0 300 300" fill="none" xmlns="http://www.w3.org/2000/svg">
<path d="M289.584 7.59802H7.63892V290.564H289.584V197.178C290.704 195.559 291.257 193.488 291.257 190.956C291.257 188.058 290.704 186.263 289.584 184.751" fill="url(#paint0_radial_828_43)"/>
<path d="M33.0529 130.042L27.6289 116.825L22.2359 130.042H33.0529ZM152.543 124.779C151.454 125.44 150.166 125.462 148.623 125.462H138.996V118.098H148.754C150.135 118.098 151.576 118.16 152.512 118.696C153.54 119.179 154.176 120.207 154.176 121.627C154.176 123.076 153.571 124.242 152.543 124.779ZM221.221 130.042L215.737 116.825L210.283 130.042H221.221ZM93.2009 144.348H85.0769L85.0469 118.382L73.5559 144.348H66.5979L55.0769 118.359V144.348H38.9589L35.9139 136.953H19.4139L16.3379 144.348H7.73094L21.9219 111.194H33.6959L47.1739 142.584V111.194H60.1079L70.4789 133.685L80.0059 111.194H93.1999V144.348H93.2009ZM125.58 144.348H99.1069V111.194H125.58V118.098H107.032V124.074H125.135V130.87H107.032V137.491H125.58V144.348V144.348ZM162.906 120.123C162.906 125.409 159.378 128.14 157.322 128.96C159.056 129.62 160.537 130.786 161.242 131.752C162.361 133.401 162.554 134.874 162.554 137.835V144.348H154.561L154.531 140.167C154.531 138.172 154.722 135.303 153.28 133.708C152.122 132.542 150.357 132.289 147.504 132.289H138.997V144.348H131.073V111.194H149.3C153.35 111.194 156.334 111.301 158.896 112.782C161.403 114.263 162.906 116.425 162.906 120.123ZM175.588 144.348H167.502V111.194H175.588V144.348ZM269.396 144.348H258.166L243.145 119.464V144.348H227.006L223.922 136.953H207.46L204.468 144.348H195.195C191.343 144.348 186.466 143.496 183.704 140.681C180.919 137.866 179.47 134.053 179.47 128.024C179.47 123.107 180.336 118.612 183.742 115.06C186.304 112.414 190.316 111.194 195.777 111.194H203.449V118.298H195.938C193.046 118.298 191.413 118.728 189.84 120.262C188.489 121.658 187.562 124.297 187.562 127.772C187.562 131.324 188.268 133.885 189.741 135.558C190.961 136.87 193.178 137.268 195.264 137.268H198.823L209.992 111.195H221.866L235.283 142.554V111.195H247.349L261.279 134.285V111.195H269.396V144.348ZM7.63894 150.86H21.1789L24.2319 143.496H31.0669L34.1119 150.86H60.7529V145.23L63.1309 150.884H76.9609L79.3389 145.146V150.86H145.547L145.516 138.772H146.797C147.694 138.803 147.956 138.886 147.956 140.367V150.86H182.199V148.046C184.961 149.526 189.257 150.86 194.91 150.86H209.316L212.399 143.496H219.234L222.249 150.86H250.01V143.865L254.214 150.86H276.46V104.62H254.444V110.081L251.361 104.62H228.77V110.081L225.939 104.62H195.424C190.316 104.62 185.826 105.333 182.199 107.32V104.62H161.141V107.32C158.833 105.272 155.688 104.62 152.191 104.62H75.2579L70.0959 116.563L64.7949 104.62H40.5629V110.081L37.9009 104.62H17.2349L7.63794 126.605V150.86H7.63894Z" fill="white"/>
<path d="M289.584 175.315H275.141C273.699 175.315 272.741 175.369 271.934 175.914C271.098 176.451 270.776 177.248 270.776 178.3C270.776 179.551 271.482 180.402 272.509 180.77C273.345 181.061 274.243 181.146 275.563 181.146L279.858 181.261C284.192 181.368 287.085 182.113 288.849 183.93C289.17 184.183 289.363 184.467 289.584 184.751V175.315ZM289.584 197.178C287.659 199.993 283.908 201.42 278.83 201.42H263.526V194.309H278.768C280.28 194.309 281.338 194.11 281.975 193.488C282.527 192.975 282.912 192.23 282.912 191.325C282.912 190.359 282.527 189.592 281.944 189.132C281.369 188.626 280.532 188.396 279.152 188.396C271.711 188.143 262.428 188.626 262.428 178.132C262.428 173.322 265.482 168.259 273.798 168.259H289.583V161.661H274.917C270.491 161.661 267.276 162.721 264.999 164.369V161.661H243.306C239.837 161.661 235.765 162.521 233.839 164.369V161.661H195.101V164.369C192.018 162.145 186.816 161.661 184.415 161.661H158.863V164.369C156.424 162.007 151 161.661 147.694 161.661H119.097L112.553 168.743L106.424 161.661H63.7061V207.933H105.62L112.363 200.739L118.715 207.933L144.551 207.956V197.071H147.091C150.519 197.124 154.562 196.986 158.129 195.444V207.932H179.439V195.872H180.467C181.779 195.872 181.908 195.926 181.908 197.237V207.931H246.644C250.754 207.931 255.05 206.879 257.429 204.97V207.931H277.963C282.236 207.931 286.409 207.332 289.584 205.798V197.178ZM257.973 183.93C259.516 185.527 260.343 187.543 260.343 190.956C260.343 198.09 255.886 201.42 247.894 201.42H232.459V194.309H247.832C249.335 194.309 250.401 194.11 251.069 193.488C251.614 192.975 252.005 192.23 252.005 191.325C252.005 190.359 251.582 189.592 251.038 189.132C250.432 188.626 249.596 188.396 248.216 188.396C240.805 188.143 231.524 188.626 231.524 178.132C231.524 173.322 234.546 168.259 242.854 168.259H258.741V175.317H244.204C242.763 175.317 241.826 175.371 241.029 175.916C240.161 176.453 239.839 177.25 239.839 178.302C239.839 179.553 240.576 180.404 241.573 180.772C242.409 181.063 243.307 181.148 244.657 181.148L248.923 181.263C253.225 181.368 256.178 182.112 257.973 183.93ZM186.465 181.882C185.405 182.511 184.094 182.565 182.552 182.565H172.925V175.117H182.683C184.094 175.117 185.506 175.147 186.465 175.716C187.492 176.253 188.106 177.28 188.106 178.699C188.106 180.118 187.492 181.261 186.465 181.882ZM191.251 186.009C193.015 186.66 194.457 187.827 195.133 188.793C196.252 190.412 196.414 191.923 196.446 194.846V201.42H188.49V197.271C188.49 195.276 188.682 192.322 187.209 190.78C186.051 189.592 184.286 189.308 181.395 189.308H172.926V201.42H164.963V168.258H183.259C187.271 168.258 190.193 168.435 192.794 169.823C195.295 171.334 196.868 173.404 196.868 177.187C196.867 182.48 193.337 185.181 191.251 186.009ZM201.262 168.258H227.711V175.116H209.154V181.145H227.258V187.911H209.154V194.509L227.711 194.539V201.42H201.262V168.258V168.258ZM147.795 183.562H137.554V175.117H147.887C150.748 175.117 152.734 176.283 152.734 179.183C152.734 182.051 150.84 183.562 147.795 183.562ZM129.661 198.404L117.494 184.896L129.661 171.817V198.404ZM98.2401 194.509H78.7561V187.911H96.1541V181.145H78.7561V175.116H98.6241L107.292 184.78L98.2401 194.509ZM161.242 179.183C161.242 188.395 154.369 190.297 147.442 190.297H137.554V201.42H122.151L112.393 190.442L102.252 201.42H70.8621V168.258H102.735L112.485 179.128L122.565 168.258H147.887C154.176 168.258 161.242 169.999 161.242 179.183Z" fill="white"/>
<defs>
<radialGradient id="paint0_radial_828_43" cx="0" cy="0" r="1" gradientUnits="userSpaceOnUse" gradientTransform="translate(57.3881 57.021) scale(264.58)">
<stop stop-color="#9DD5F6"/>
<stop offset="0.0711" stop-color="#98D3F5"/>
<stop offset="0.1575" stop-color="#89CEF3"/>
<stop offset="0.2516" stop-color="#70C6EF"/>
<stop offset="0.3514" stop-color="#4EBBEA"/>
<stop offset="0.4546" stop-color="#23ADE3"/>
<stop offset="0.5" stop-color="#0DA6E0"/>
<stop offset="1" stop-color="#2E77BC"/>
</radialGradient>
</defs>
</svg>
